<?xml version="1.0" standalone="no"?>
<!DOCTYPE svg PUBLIC "-//W3C//DTD SVG 20010904//EN"
 "http://www.w3.org/TR/2001/REC-SVG-20010904/DTD/svg10.dtd">
<svg version="1.0" xmlns="http://www.w3.org/2000/svg"
 width="500.000000pt" height="500.000000pt" viewBox="0 0 500.000000 500.000000"
 preserveAspectRatio="xMidYMid meet">

<g transform="translate(0.000000,500.000000) scale(0.100000,-0.100000)"
fill="#000000" stroke="none">
<path d="M2040 3695 c0 -11 11 -15 43 -15 91 -1 237 -45 237 -73 0 -5 -68
-233 -151 -506 -83 -273 -155 -508 -159 -523 -7 -23 -5 -28 9 -28 14 0 45 94
171 515 85 283 159 513 164 512 25 -8 76 -149 207 -568 l143 -459 153 0 c117
0 151 3 148 13 -13 40 -345 1137 -345 1142 0 3 -139 5 -310 5 -269 0 -310 -2
-310 -15z"/>
<path d="M2045 2911 c-3 -5 -2 -12 3 -15 5 -3 9 1 9 9 0 17 -3 19 -12 6z"/>
<path d="M1980 2855 c-24 -25 -42 -45 -39 -45 3 0 25 20 49 45 24 25 42 45 39
45 -3 0 -25 -20 -49 -45z"/>
<path d="M1970 2808 c-63 -60 -66 -63 -15 -20 56 47 103 93 94 92 -2 -1 -38
-33 -79 -72z"/>
<path d="M1842 2725 c-67 -72 -76 -88 -25 -45 22 19 42 40 42 45 1 6 12 20 23
33 12 12 19 22 17 22 -3 0 -28 -25 -57 -55z"/>
<path d="M1730 2608 c-19 -17 -34 -36 -32 -41 1 -4 -1 -6 -5 -4 -5 3 -24 2
-43 -3 -19 -4 -26 -8 -16 -9 19 -1 19 -1 0 -23 -10 -13 -4 -10 14 6 42 39 43
14 0 -39 -20 -25 -23 -33 -9 -20 12 11 30 32 39 47 11 18 25 28 42 29 21 0 22
2 6 8 -16 6 -16 9 -5 22 59 63 63 77 9 27z"/>
<path d="M1493 2543 c9 -2 25 -2 35 0 9 3 1 5 -18 5 -19 0 -27 -2 -17 -5z"/>
<path d="M1778 2543 c7 -3 16 -2 19 1 4 3 -2 6 -13 5 -11 0 -14 -3 -6 -6z"/>
<path d="M1510 2440 c-52 -38 -127 -88 -167 -112 -40 -23 -70 -44 -68 -46 9
-9 335 208 335 224 0 6 0 6 -100 -66z"/>
<path d="M1595 2424 c-9 -15 -12 -23 -6 -20 11 7 35 46 28 46 -3 0 -12 -12
-22 -26z"/>
<path d="M2322 2400 c-18 -16 -41 -30 -50 -30 -9 0 -24 -5 -32 -11 -11 -8 -9
-9 10 -3 23 6 24 6 10 -12 -11 -15 -9 -15 10 2 14 12 48 34 75 48 28 15 39 24
26 20 -16 -4 -21 -3 -17 5 12 18 2 13 -32 -19z"/>
<path d="M2413 2404 c2 -22 -57 -64 -89 -64 -13 0 -24 -5 -24 -11 0 -7 7 -8
18 -4 9 4 34 9 54 12 21 3 35 10 32 15 -3 5 2 18 12 29 13 14 14 23 7 30 -8 8
-11 6 -10 -7z"/>
<path d="M2570 2410 c-11 -8 -7 -9 15 -4 37 8 45 14 19 14 -10 0 -26 -5 -34
-10z"/>
<path d="M1680 2363 c-37 -39 -40 -44 -15 -28 57 34 70 45 56 45 -11 0 -11 3
-1 15 25 31 4 13 -40 -32z"/>
<path d="M1798 2403 l23 -4 -26 -31 c-25 -29 -25 -48 -2 -48 9 0 8 3 -1 8 -9
7 -6 15 13 36 28 30 25 47 -8 45 -22 -2 -22 -2 1 -6z"/>
<path d="M1999 2393 c-13 -16 -12 -17 4 -4 9 7 17 15 17 17 0 8 -8 3 -21 -13z"/>
<path d="M2630 2397 c0 -7 -14 -20 -31 -28 -29 -14 -30 -16 -13 -29 10 -8 15
-10 11 -3 -5 8 4 18 22 28 20 10 28 20 25 30 -7 19 -14 19 -14 2z"/>
<path d="M2835 2390 c-10 -11 -25 -20 -33 -20 -9 0 -12 -3 -9 -6 3 -4 2 -15
-4 -25 -8 -17 -5 -16 24 4 19 12 43 27 53 34 16 11 16 12 2 7 -20 -7 -25 12
-5 19 7 3 7 6 1 6 -6 1 -19 -8 -29 -19z"/>
<path d="M2928 2403 c26 -5 28 -16 7 -33 -24 -20 -17 -31 11 -18 15 7 22 14
16 16 -5 1 -8 12 -5 22 4 17 0 20 -23 19 -24 -1 -25 -2 -6 -6z"/>
<path d="M1745 2390 c-3 -6 1 -7 9 -4 18 7 21 14 7 14 -6 0 -13 -4 -16 -10z"/>
<path d="M2050 2369 c-30 -17 -46 -27 -35 -23 11 3 27 7 35 7 8 0 28 11 43 23
38 32 24 29 -43 -7z"/>
<path d="M3010 2390 c-18 -12 -2 -12 25 0 13 6 15 9 5 9 -8 0 -22 -4 -30 -9z"/>
<path d="M3046 2372 l-19 -27 24 22 c12 12 21 24 18 27 -2 2 -13 -8 -23 -22z"/>
<path d="M1517 2308 c-80 -124 -117 -187 -117 -201 0 -6 16 17 36 53 20 36 57
96 83 135 61 93 63 95 57 95 -3 0 -30 -37 -59 -82z"/>
<path d="M2500 2377 c-27 -13 -34 -48 -10 -54 12 -4 12 -3 2 5 -11 7 -8 15 14
36 32 29 31 30 -6 13z"/>
<path d="M1935 2365 c-39 -13 -39 -13 -7 -11 18 2 38 8 44 14 14 14 14 14 -37
-3z"/>
<path d="M3170 2364 c-33 -13 -33 -14 -5 -8 17 3 34 10 40 15 11 11 8 11 -35
-7z"/>
<path d="M2428 2353 c6 -2 18 -2 25 0 6 3 1 5 -13 5 -14 0 -19 -2 -12 -5z"/>
<path d="M2725 2350 c-27 -7 -28 -8 -5 -8 14 0 34 3 45 8 25 11 2 11 -40 0z"/>
<path d="M1868 2343 c7 -3 16 -2 19 1 4 3 -2 6 -13 5 -11 0 -14 -3 -6 -6z"/>
<path d="M2178 2343 c7 -3 16 -2 19 1 4 3 -2 6 -13 5 -11 0 -14 -3 -6 -6z"/>
<path d="M2525 2340 c-13 -6 -15 -9 -5 -9 8 0 22 4 30 9 18 12 2 12 -25 0z"/>
<path d="M3070 2340 c-19 -5 -38 -6 -42 -4 -5 3 -8 0 -8 -6 0 -11 55 -5 95 11
26 10 1 9 -45 -1z"/>
<path d="M1818 2333 c7 -3 16 -2 19 1 4 3 -2 6 -13 5 -11 0 -14 -3 -6 -6z"/>
<path d="M2058 2328 c6 -6 18 -8 28 -6 14 3 12 5 -9 10 -19 3 -25 2 -19 -4z"/>
<path d="M2123 2333 c9 -2 23 -2 30 0 6 3 -1 5 -18 5 -16 0 -22 -2 -12 -5z"/>
<path d="M2658 2333 c6 -2 18 -2 25 0 6 3 1 5 -13 5 -14 0 -19 -2 -12 -5z"/>
<path d="M2220 2310 c-8 -5 -12 -12 -9 -15 4 -3 12 1 19 10 14 17 11 19 -10 5z"/>
<path d="M1110 2274 c-11 -27 1 -54 23 -54 6 0 3 6 -7 13 -14 10 -15 18 -7 40
6 15 8 27 6 27 -3 0 -10 -12 -15 -26z"/>
<path d="M1240 2270 c-9 -6 -10 -10 -3 -10 6 0 15 5 18 10 8 12 4 12 -15 0z"/>
<path d="M2149 2243 l-24 -28 28 24 c25 23 32 31 24 31 -2 0 -14 -12 -28 -27z"/>
<path d="M1175 2245 c-16 -8 -23 -14 -15 -14 8 0 26 6 40 14 32 18 15 18 -25
0z"/>
<path d="M2074 2158 l-19 -23 23 19 c21 18 27 26 19 26 -2 0 -12 -10 -23 -22z"/>
<path d="M1826 1973 c-32 -104 -75 -225 -97 -269 -55 -117 -98 -150 -221 -169
-24 -4 -38 -11 -38 -20 0 -13 45 -15 310 -15 256 0 310 2 310 14 0 9 -21 15
-72 20 -99 10 -142 22 -177 52 -66 56 -63 151 14 395 25 79 48 152 51 162 3
10 0 17 -9 17 -9 0 -32 -60 -71 -187z"/>
<path d="M2830 2151 c0 -5 18 -67 39 -138 58 -189 72 -249 73 -312 1 -67 -20
-114 -60 -135 -33 -17 -130 -36 -184 -36 -27 0 -38 -4 -38 -15 0 -13 56 -15
440 -15 365 0 440 2 440 14 0 9 -19 15 -57 20 -75 9 -135 36 -162 74 -41 59
-65 124 -170 480 l-22 72 -149 0 c-85 0 -150 -4 -150 -9z"/>
</g>
</svg>
