<?xml version="1.0" standalone="no"?>
<!DOCTYPE svg PUBLIC "-//W3C//DTD SVG 20010904//EN"
 "http://www.w3.org/TR/2001/REC-SVG-20010904/DTD/svg10.dtd">
<svg version="1.0" xmlns="http://www.w3.org/2000/svg"
 width="500.000000pt" height="500.000000pt" viewBox="0 0 500.000000 500.000000"
 preserveAspectRatio="xMidYMid meet">

<g transform="translate(0.000000,500.000000) scale(0.100000,-0.100000)"
fill="#000000" stroke="none">
<path d="M2468 2907 c-163 -178 -199 -212 -303 -285 -197 -137 -300 -177 -344
-133 -28 28 -27 54 8 128 16 34 27 64 24 67 -15 15 -38 2 -94 -55 -74 -75
-166 -122 -231 -117 -36 3 -44 7 -46 26 -6 39 17 79 73 131 56 50 103 77 154
87 24 5 35 1 54 -20 30 -32 42 -33 63 -1 13 20 14 28 4 40 -16 19 -85 19 -140
0 -113 -40 -266 -166 -290 -239 -12 -38 -12 -41 14 -63 51 -43 144 -23 263 57
24 17 46 30 49 30 2 0 4 -12 4 -26 0 -41 29 -91 61 -104 57 -24 174 17 313
111 62 42 83 52 65 33 -14 -16 -59 -67 -99 -114 -66 -77 -70 -85 -50 -88 17
-3 43 16 104 76 109 107 278 246 330 271 41 20 108 27 140 15 25 -9 19 -56
-11 -97 -39 -51 -150 -135 -195 -147 -42 -12 -68 -3 -92 31 -21 30 -50 21 -54
-17 -5 -51 16 -60 213 -96 89 -16 314 -15 430 1 125 18 338 63 545 117 262 67
366 71 452 14 64 -43 91 -97 86 -172 -4 -52 -3 -58 9 -42 17 23 27 78 19 106
-12 51 -64 115 -109 137 -111 54 -205 47 -562 -43 -461 -115 -630 -132 -909
-94 l-79 11 60 27 c121 55 228 143 268 221 13 25 15 37 6 56 -26 56 -115 49
-255 -22 -50 -24 -91 -43 -93 -42 -1 2 78 95 177 208 99 112 179 207 180 212
1 28 -50 -18 -212 -196z"/>
<path d="M1686 2324 c-4 -9 -4 -19 -1 -22 3 -3 5 0 5 6 0 21 16 13 28 -13 16
-35 16 -35 -18 -35 -24 0 -28 3 -23 18 10 27 -3 11 -21 -28 -11 -23 -12 -29
-3 -17 8 10 28 17 47 17 19 0 39 -7 47 -17 11 -15 11 -13 0 17 -37 92 -49 106
-61 74z"/>
<path d="M1822 2278 l1 -63 6 49 6 49 38 -48 37 -48 -2 64 c-1 64 -1 64 -7 15
l-6 -48 -34 46 c-19 25 -36 46 -38 46 -2 0 -2 -28 -1 -62z"/>
<path d="M1991 2293 c0 -28 2 -54 7 -57 4 -2 6 14 4 37 -5 68 -10 76 -11 20z"/>
<path d="M2072 2293 c-2 -46 -5 -52 -29 -61 -16 -6 -21 -11 -12 -11 35 -2 50
23 46 74 l-3 50 -2 -52z"/>
<path d="M2151 2278 c1 -35 4 -53 6 -40 3 15 11 22 28 22 32 0 55 10 55 23 0
7 -4 7 -12 -1 -7 -7 -25 -12 -40 -12 -24 0 -28 4 -28 30 0 27 3 30 30 30 17 0
33 -7 39 -17 9 -16 10 -16 11 -2 0 20 -20 29 -61 29 l-29 0 1 -62z"/>
<path d="M2336 2324 c-4 -9 -4 -19 -1 -22 3 -3 5 0 5 6 0 21 16 13 28 -13 16
-35 16 -35 -18 -35 -24 0 -28 3 -23 18 10 27 -3 11 -21 -28 -11 -23 -12 -29
-3 -17 8 10 28 17 47 17 19 0 39 -7 47 -17 11 -15 11 -13 0 17 -37 92 -49 106
-61 74z"/>
<path d="M2462 2278 c1 -58 2 -59 5 -15 4 43 6 47 20 35 15 -12 15 -11 5 9
-24 43 -32 35 -30 -29z"/>
<path d="M2573 2328 c-6 -7 -16 -24 -22 -38 l-12 -25 20 25 20 25 4 -50 c3
-48 3 -48 5 13 2 65 1 70 -15 50z"/>
<path d="M2741 2278 c1 -35 4 -53 6 -41 3 14 13 23 31 26 l27 4 -27 2 c-24 1
-28 5 -28 31 0 25 4 30 24 30 29 0 49 -22 39 -45 -4 -13 -3 -16 5 -11 32 19
-3 66 -49 66 l-29 0 1 -62z"/>
<path d="M2900 2320 c-24 -24 -26 -53 -4 -74 22 -23 30 -20 9 4 -24 27 -13 68
22 76 36 9 57 -7 61 -45 3 -27 -1 -33 -30 -46 -18 -8 -26 -14 -18 -15 29 0 60
30 60 59 0 55 -61 80 -100 41z"/>
<path d="M3071 2293 c0 -28 2 -54 7 -57 4 -2 6 14 4 37 -5 68 -10 76 -11 20z"/>
<path d="M3152 2293 c-2 -46 -5 -52 -29 -61 -16 -6 -21 -11 -12 -11 35 -2 50
23 46 74 l-3 50 -2 -52z"/>
<path d="M3230 2280 l0 -60 33 1 c29 1 30 2 7 8 -21 6 -25 13 -28 53 -3 46 -3
47 30 51 l33 4 -37 1 -38 2 0 -60z"/>
<path d="M3410 2280 l0 -60 43 2 42 1 -37 4 c-32 4 -38 8 -38 28 0 19 6 24 33
28 l32 4 -32 1 c-25 2 -33 7 -33 21 0 15 8 21 38 24 l37 4 -42 1 -43 2 0 -60z"/>
<path d="M3552 2283 l-2 -63 43 2 42 1 -37 4 -37 4 -4 57 -3 57 -2 -62z"/>
<path d="M3318 2320 c18 -21 15 -67 -5 -79 -10 -6 -13 -11 -7 -11 34 -1 47 68
17 91 -15 11 -16 11 -5 -1z"/>
<path d="M2509 2262 c7 -12 17 -20 22 -16 6 3 9 7 7 8 -2 1 -12 8 -22 16 -18
14 -19 14 -7 -8z"/>
<path d="M1767 2085 c-78 -106 -207 -317 -207 -339 0 -25 44 -42 75 -28 21 10
25 18 25 57 0 57 26 110 135 271 79 116 83 124 60 124 -20 0 -38 -18 -88 -85z"/>
</g>
</svg>
